<mxfile host="Electron" agent="Mozilla/5.0 (X11; Linux x86_64) AppleWebKit/537.36 (KHTML, like Gecko) draw.io/24.7.17 Chrome/128.0.6613.36 Electron/32.0.1 Safari/537.36" version="24.7.17">
  <diagram name="Page-1" id="1s0JQ3BfCGlcH6EFeFgW">
    <mxGraphModel dx="2920" dy="1343" grid="1" gridSize="10" guides="1" tooltips="1" connect="1" arrows="1" fold="1" page="1" pageScale="1" pageWidth="850" pageHeight="1100" math="0" shadow="0">
      <root>
        <mxCell id="0" />
        <mxCell id="1" parent="0" />
        <mxCell id="MI0fYiqhwLS8Kx_8JPlE-1" value="" style="rounded=0;whiteSpace=wrap;html=1;strokeColor=none;" parent="1" vertex="1">
          <mxGeometry x="-120" y="190" width="930" height="60" as="geometry" />
        </mxCell>
        <mxCell id="rNiKUaHW7VqTamMN0eGQ-17" value="&lt;b&gt;wb_dfx_controller&lt;/b&gt;&amp;nbsp; &amp;nbsp; &amp;nbsp; &amp;nbsp; &amp;nbsp; &amp;nbsp;" style="rounded=1;whiteSpace=wrap;html=1;fontSize=18;verticalAlign=bottom;align=right;" parent="1" vertex="1">
          <mxGeometry x="180" y="70" width="360" height="330" as="geometry" />
        </mxCell>
        <mxCell id="rNiKUaHW7VqTamMN0eGQ-1" value="&lt;b style=&quot;font-size: 18px;&quot;&gt;dfx_controller&lt;/b&gt;&lt;div style=&quot;font-size: 18px;&quot;&gt;(Vivado IP)&lt;/div&gt;" style="rounded=0;whiteSpace=wrap;html=1;fontSize=18;" parent="1" vertex="1">
          <mxGeometry x="220" y="200" width="160" height="60" as="geometry" />
        </mxCell>
        <mxCell id="rNiKUaHW7VqTamMN0eGQ-2" value="&lt;b style=&quot;font-size: 18px;&quot;&gt;wbm2axlite&lt;/b&gt;" style="rounded=0;whiteSpace=wrap;html=1;fontSize=18;" parent="1" vertex="1">
          <mxGeometry x="220" y="100" width="160" height="60" as="geometry" />
        </mxCell>
        <mxCell id="rNiKUaHW7VqTamMN0eGQ-3" value="&lt;b style=&quot;font-size: 18px;&quot;&gt;ICAPE2&lt;/b&gt;&lt;div style=&quot;font-size: 18px;&quot;&gt;(Vivado Primitive)&lt;/div&gt;" style="rounded=0;whiteSpace=wrap;html=1;fontSize=18;" parent="1" vertex="1">
          <mxGeometry x="425" y="190" width="95" height="80" as="geometry" />
        </mxCell>
        <mxCell id="rNiKUaHW7VqTamMN0eGQ-4" value="aximrd2wbsp" style="rounded=0;whiteSpace=wrap;html=1;fontStyle=1;fontSize=18;" parent="1" vertex="1">
          <mxGeometry x="220" y="300" width="160" height="60" as="geometry" />
        </mxCell>
        <mxCell id="rNiKUaHW7VqTamMN0eGQ-5" value="Wishbone Slave Port" style="shape=flexArrow;endArrow=classic;html=1;rounded=0;fontSize=18;fillColor=default;" parent="1" target="rNiKUaHW7VqTamMN0eGQ-2" edge="1">
          <mxGeometry x="-1" y="-10" width="50" height="50" relative="1" as="geometry">
            <mxPoint x="300" y="50" as="sourcePoint" />
            <mxPoint x="340" y="-30" as="targetPoint" />
            <mxPoint x="10" y="-10" as="offset" />
          </mxGeometry>
        </mxCell>
        <mxCell id="rNiKUaHW7VqTamMN0eGQ-7" value="Wishbone&amp;nbsp;&lt;div&gt;Master Port&lt;/div&gt;&lt;div&gt;(read-only)&lt;/div&gt;" style="shape=flexArrow;endArrow=classic;html=1;rounded=0;fontSize=18;fillColor=default;" parent="1" source="rNiKUaHW7VqTamMN0eGQ-4" edge="1">
          <mxGeometry x="1" y="30" width="50" height="50" relative="1" as="geometry">
            <mxPoint x="360" y="560" as="sourcePoint" />
            <mxPoint x="300" y="440" as="targetPoint" />
            <mxPoint x="-30" y="30" as="offset" />
          </mxGeometry>
        </mxCell>
        <mxCell id="rNiKUaHW7VqTamMN0eGQ-8" value="" style="shape=flexArrow;endArrow=classic;html=1;rounded=0;" parent="1" source="rNiKUaHW7VqTamMN0eGQ-2" target="rNiKUaHW7VqTamMN0eGQ-1" edge="1">
          <mxGeometry width="50" height="50" relative="1" as="geometry">
            <mxPoint x="500" y="490" as="sourcePoint" />
            <mxPoint x="550" y="440" as="targetPoint" />
          </mxGeometry>
        </mxCell>
        <mxCell id="rNiKUaHW7VqTamMN0eGQ-12" value="AXI Lite" style="edgeLabel;html=1;align=center;verticalAlign=middle;resizable=0;points=[];fontSize=18;" parent="rNiKUaHW7VqTamMN0eGQ-8" vertex="1" connectable="0">
          <mxGeometry x="-0.0931" y="3" relative="1" as="geometry">
            <mxPoint x="47" as="offset" />
          </mxGeometry>
        </mxCell>
        <mxCell id="rNiKUaHW7VqTamMN0eGQ-10" value="" style="shape=flexArrow;endArrow=classic;startArrow=classic;html=1;rounded=0;" parent="1" source="rNiKUaHW7VqTamMN0eGQ-1" target="rNiKUaHW7VqTamMN0eGQ-3" edge="1">
          <mxGeometry width="100" height="100" relative="1" as="geometry">
            <mxPoint x="490" y="470" as="sourcePoint" />
            <mxPoint x="590" y="370" as="targetPoint" />
          </mxGeometry>
        </mxCell>
        <mxCell id="rNiKUaHW7VqTamMN0eGQ-11" value="vs_0_rst" style="endArrow=classic;html=1;rounded=0;exitX=0;exitY=0.5;exitDx=0;exitDy=0;edgeStyle=orthogonalEdgeStyle;fontSize=18;" parent="1" source="rNiKUaHW7VqTamMN0eGQ-1" edge="1">
          <mxGeometry x="1" y="10" width="50" height="50" relative="1" as="geometry">
            <mxPoint x="170" y="480" as="sourcePoint" />
            <mxPoint x="200" y="420" as="targetPoint" />
            <mxPoint x="-10" y="10" as="offset" />
          </mxGeometry>
        </mxCell>
        <mxCell id="rNiKUaHW7VqTamMN0eGQ-14" value="&lt;font style=&quot;font-size: 18px;&quot;&gt;AXI&lt;/font&gt;" style="shape=flexArrow;endArrow=classic;html=1;rounded=0;" parent="1" source="rNiKUaHW7VqTamMN0eGQ-1" target="rNiKUaHW7VqTamMN0eGQ-4" edge="1">
          <mxGeometry y="30" width="50" height="50" relative="1" as="geometry">
            <mxPoint x="410" y="360" as="sourcePoint" />
            <mxPoint x="460" y="310" as="targetPoint" />
            <mxPoint as="offset" />
          </mxGeometry>
        </mxCell>
      </root>
    </mxGraphModel>
  </diagram>
</mxfile>
